<?xml version="1.0" encoding="UTF-8"?>
<svg width="24px" height="24px" viewBox="0 0 24 24" version="1.1" xmlns="http://www.w3.org/2000/svg" xmlns:xlink="http://www.w3.org/1999/xlink">
    <title>91770174-E26F-4F3A-96CC-7ADB78AFC3AA</title>
    <g id="New" stroke="none" stroke-width="1" fill="none" fill-rule="evenodd">
        <g id="iPhone-11-Pro-Copy-7" transform="translate(-30.000000, -52.000000)">
            <g id="Group" transform="translate(30.000000, 52.000000)">
                <polygon id="Path" points="0 0 24 0 24 24 0 24"></polygon>
                <path d="M3.741,1.408 L22.203,11.562 C22.3626645,11.6499086 22.4618444,11.8177346 22.4618444,12 C22.4618444,12.1822654 22.3626645,12.3500914 22.203,12.438 L3.741,22.592 C3.58611635,22.6772047 3.39775316,22.6742935 3.24557663,22.584343 C3.0934001,22.4943925 3,22.3307733 3,22.154 L3,1.846 C3,1.66922673 3.0934001,1.50560754 3.24557663,1.41565704 C3.39775316,1.32570654 3.58611635,1.32279528 3.741,1.408 Z M5,13 L5,19.617 L18.85,12 L5,4.383 L5,11 L10,11 L10,13 L5,13 Z" id="Shape" fill="#FFFFFF" fill-rule="nonzero"></path>
            </g>
        </g>
    </g>
</svg>