<?xml version="1.0" encoding="UTF-8"?>
<svg width="23px" height="14px" viewBox="0 0 23 14" version="1.1" xmlns="http://www.w3.org/2000/svg" xmlns:xlink="http://www.w3.org/1999/xlink">
    <!-- Generator: Sketch 64 (93537) - https://sketch.com -->
    <title>Group</title>
    <desc>Created with Sketch.</desc>
    <g id="Page-1" stroke="none" stroke-width="1" fill="none" fill-rule="evenodd">
        <g id="Desktop-HD" transform="translate(-207.000000, -436.000000)" fill="#4A4A4A" fill-rule="nonzero">
            <g id="Group" transform="translate(207.000000, 436.000000)">
                <polygon id="Path" points="19.5277531 6.18030864 22.1234568 6.18030864 22.1234568 7.47660494 19.5277531 7.47660494"></polygon>
                <polygon id="Path" transform="translate(19.366457, 3.313986) rotate(-45.000000) translate(-19.366457, -3.313986) " points="18.0688015 2.66593566 20.6641133 2.66593566 20.6641133 3.9620362 18.0688015 3.9620362"></polygon>
                <polygon id="Path" transform="translate(19.365684, 10.344756) rotate(-45.000000) translate(-19.365684, -10.344756) " points="18.7176341 9.04710026 20.0137346 9.04710026 20.0137346 11.642412 18.7176341 11.642412"></polygon>
                <path d="M15.2053827,1.29141358 C11.7227531,3.54688272 8.28501852,3.58551235 8.25083951,3.58564198 L3.24281481,3.58564198 C1.4547037,3.58564198 1.55431223e-14,5.04034568 1.55431223e-14,6.82845679 C1.55431223e-14,8.6165679 1.4547037,10.0712716 3.24281481,10.0712716 L5.00802469,10.0712716 L5.00802469,13.9632716 L8.89898765,13.9632716 L8.89898765,10.1148272 C10.0586975,10.2346481 12.6106728,10.6841173 15.2053827,12.3654568 L15.2053827,13.6569136 L16.501679,13.6569136 L16.501679,-1.3211654e-14 L15.2053827,-1.3211654e-14 L15.2053827,1.29141358 Z M1.2962963,6.82845679 C1.2962963,5.75516667 2.16948148,4.88193827 3.24281481,4.88193827 L7.60269136,4.88193827 L7.60269136,8.77497531 L3.24281481,8.77497531 C2.16948148,8.77497531 1.2962963,7.90174691 1.2962963,6.82845679 Z M6.30432099,12.6669753 L6.30432099,10.0712716 L7.60269136,10.0712716 L7.60269136,12.6669753 L6.30432099,12.6669753 Z M8.89898765,8.8107963 L8.89898765,4.84607407 C10.0424074,4.74332099 12.5398519,4.34561728 15.2053827,2.81045679 L15.2053827,10.8465 C12.5398519,9.3112963 10.0424074,8.91354938 8.89898765,8.8107963 L8.89898765,8.8107963 Z" id="Shape"></path>
                <polygon id="Path" points="5.00906173 6.18030864 6.30639506 6.18030864 6.30639506 7.47660494 5.00906173 7.47660494"></polygon>
            </g>
        </g>
    </g>
</svg>