<?xml version="1.0" encoding="UTF-8"?>
<svg width="17px" height="17px" viewBox="0 0 17 17" version="1.1" xmlns="http://www.w3.org/2000/svg" xmlns:xlink="http://www.w3.org/1999/xlink">
    <!-- Generator: Sketch 64 (93537) - https://sketch.com -->
    <title>Group 22</title>
    <desc>Created with Sketch.</desc>
    <g id="Page-1" stroke="none" stroke-width="1" fill="none" fill-rule="evenodd">
        <g id="Group-22" fill="#E4670F" fill-rule="nonzero">
            <g id="speech-bubble" transform="translate(8.500000, 8.500000) scale(-1, 1) translate(-8.500000, -8.500000) ">
                <path d="M8.5,16.2867924 C8.5,16.7984524 9.03291159,17.1432004 9.5115501,16.9415246 C13.9280766,15.0806228 16.9549116,11.6789636 16.9994656,7.22645895 C17,7.19352146 17,7.16015233 17,7.1267832 C17,7.09341406 17,7.06001173 16.9994656,7.02710744 L16.9994656,7.22649215 C17,7.19355466 17,7.16018553 17,7.1268164 C17,7.09344727 17,7.06004493 16.9994656,7.02714065 C16.9354401,3.13713 13.1545599,0 8.5,0 C3.80562868,0 0,3.19078623 0,7.12674999 C0,11.0627138 3.80562868,14.2535 8.5,14.2535 L8.5,16.2867924 Z" id="Path"></path>
            </g>
        </g>
    </g>
</svg>