<?xml version="1.0" encoding="UTF-8"?>
<svg width="22px" height="22px" viewBox="0 0 22 22" version="1.1" xmlns="http://www.w3.org/2000/svg" xmlns:xlink="http://www.w3.org/1999/xlink">
    <title>68C0ADD4-5EB8-4C70-B46C-C4E27F6C6DD5</title>
    <g id="New" stroke="none" stroke-width="1" fill="none" fill-rule="evenodd">
        <g id="iPhone-11-Pro-Copy-7" transform="translate(-319.000000, -683.000000)">
            <g id="Arrow_right-Copy" transform="translate(330.000000, 694.000000) rotate(-270.000000) translate(-330.000000, -694.000000) translate(319.000000, 683.000000)">
                <circle id="Oval" fill="#FFFFFF" cx="11" cy="11" r="10"></circle>
                <path d="M11.1075556,0.195555556 C5.16742625,0.195555556 0.352,5.0109818 0.352,10.9511111 C0.352,16.8912404 5.16742625,21.7066667 11.1075556,21.7066667 C17.0476849,21.7066667 21.8631111,16.8912404 21.8631111,10.9511111 C21.8631111,5.0109818 17.0476849,0.195555556 11.1075556,0.195555556 L11.1075556,0.195555556 Z M11.1075556,20.24 C5.97744388,20.24 1.81866667,16.0812228 1.81866667,10.9511111 C1.81866667,5.82099943 5.97744388,1.66222222 11.1075556,1.66222222 C16.2376672,1.66222222 20.3964444,5.82099943 20.3964444,10.9511111 C20.3964444,13.4146776 19.4177965,15.7773429 17.6757919,17.5193474 C15.9337873,19.261352 13.5711221,20.24 11.1075556,20.24 Z" id="Shape" fill="#2561A8"></path>
                <path d="M10.208,6.49244444 C9.91905713,6.22320467 9.46879049,6.2311491 9.18952535,6.51041424 C8.91026021,6.78967938 8.90231578,7.23994602 9.17155556,7.52888889 L12.4568889,10.8142222 L9.17155556,14.0995556 C8.90231578,14.3884984 8.91026021,14.8387651 9.18952535,15.1180302 C9.46879049,15.3972953 9.91905713,15.4052398 10.208,15.136 L14.5297778,10.8142222 L13.4933333,9.77777778 L10.208,6.49244444 Z" id="Shape" fill="#2561A8"></path>
            </g>
        </g>
    </g>
</svg>