<?xml version="1.0" encoding="UTF-8"?>
<svg width="34px" height="34px" viewBox="0 0 34 34" version="1.1" xmlns="http://www.w3.org/2000/svg" xmlns:xlink="http://www.w3.org/1999/xlink">
    <title>Group 3</title>
    <g id="New" stroke="none" stroke-width="1" fill="none" fill-rule="evenodd">
        <g id="Artboard" transform="translate(-1599.000000, -369.000000)">
            <g id="Group-3" transform="translate(1599.000000, 369.000000)">
                <circle id="Oval" fill="#FFFFFF" cx="17" cy="17" r="17"></circle>
                <g id="Group" transform="translate(6.000000, 6.000000)">
                    <polygon id="Path" points="0 0 23 0 23 23 0 23"></polygon>
                    <path d="M9.60588235,2.70588235 L13.3941176,2.70588235 C17.5784868,2.70588235 20.9705882,6.18496074 20.9705882,10.4766214 C20.9705882,14.7682821 17.5784868,18.2473605 13.3941176,18.2473605 L13.3941176,21.6470588 C8.65882353,19.7043741 2.02941176,16.7903469 2.02941176,10.4766214 C2.02941176,6.18496074 5.42151319,2.70588235 9.60588235,2.70588235 Z M11.5,16.3046757 L13.3941176,16.3046757 C15.4242268,16.3046757 17.3001251,15.1938549 18.3151797,13.3906486 C19.3302343,11.5874423 19.3302343,9.36580053 18.3151797,7.56259424 C17.3001251,5.75938796 15.4242268,4.64856712 13.3941176,4.64856712 L9.60588235,4.64856712 C6.46760548,4.64856712 3.92352941,7.25787591 3.92352941,10.4766214 C3.92352941,13.9831674 6.25518824,16.2716501 11.5,18.7136048 L11.5,16.3046757 Z" id="Shape" fill="#000000" fill-rule="nonzero"></path>
                </g>
            </g>
        </g>
    </g>
</svg>