<?xml version="1.0" encoding="UTF-8"?>
<svg width="34px" height="34px" viewBox="0 0 34 34" version="1.1" xmlns="http://www.w3.org/2000/svg" xmlns:xlink="http://www.w3.org/1999/xlink">
    <title>BC5D8EEA-B507-4354-A45B-82AB5CC0B337</title>
    <g id="New" stroke="none" stroke-width="1" fill="none" fill-rule="evenodd">
        <g id="iPhone-11-Pro-Copy-7" transform="translate(-30.000000, -121.000000)">
            <g id="Group-2" transform="translate(30.000000, 121.000000)">
                <circle id="Oval" fill="#FFFFFF" cx="17" cy="17" r="17"></circle>
                <g id="Group" transform="translate(7.000000, 6.000000)">
                    <polygon id="Path" points="0 0 20 0 20 20 0 20"></polygon>
                    <path d="M4.66666667,15.3953488 L16.3333333,15.3953488 L16.3333333,9.56083721 C16.3333333,6.30995349 13.7216667,3.6744186 10.5,3.6744186 C7.27833333,3.6744186 4.66666667,6.30995349 4.66666667,9.56083721 L4.66666667,15.3953488 Z M10.5,2 C14.6416667,2 18,5.38483721 18,9.56083721 L18,17.0697674 L3,17.0697674 L3,9.56083721 C3,5.38483721 6.35833333,2 10.5,2 Z M8.41666667,17.9069767 L12.5833333,17.9069767 C12.5833333,19.0629216 11.6505932,20 10.5,20 C9.34940677,20 8.41666667,19.0629216 8.41666667,17.9069767 L8.41666667,17.9069767 Z" id="Shape" fill="#000000" fill-rule="nonzero"></path>
                </g>
            </g>
        </g>
    </g>
</svg>