<?xml version="1.0" encoding="UTF-8"?>
<svg width="30px" height="30px" viewBox="0 0 30 30" version="1.1" xmlns="http://www.w3.org/2000/svg" xmlns:xlink="http://www.w3.org/1999/xlink">
    <!-- Generator: Sketch 64 (93537) - https://sketch.com -->
    <title>Group 24</title>
    <desc>Created with Sketch.</desc>
    <g id="Page-1" stroke="none" stroke-width="1" fill="none" fill-rule="evenodd">
        <g id="Group-24">
            <circle id="Oval" fill="#2561A8" cx="15" cy="15" r="15"></circle>
            <g id="plane" transform="translate(10.000000, 10.000000)" fill="#FFFFFF" fill-rule="nonzero">
                <path d="M10.7781764,0.0400824713 C10.7299527,-0.00210318656 10.6613255,-0.0118905176 10.6031592,0.0150165674 L0.0937041354,4.88516665 C0.0371247273,4.9113954 0.000689790727,4.96769678 0,5.02990932 C-0.000670446904,5.09212186 0.0345661851,5.14919847 0.0905950208,5.17662238 L3.0647546,6.63238289 C3.11929365,6.65909617 3.18432597,6.6530558 3.23303543,6.616749 L6.1247387,4.46114587 L3.85463164,6.79007844 C3.82224503,6.8233166 3.80572786,6.86882931 3.80929038,6.91502034 L4.03531654,9.85086433 C4.04033646,9.9159194 4.08405839,9.97154245 4.14620829,9.99192464 C4.16282262,9.99735128 4.17989037,10 4.19676379,10 C4.24304426,10 4.28806164,9.98019923 4.3193795,9.94402163 L5.89796765,8.11957269 L7.84942285,9.04953064 C7.89178454,9.06971903 7.94081787,9.07055887 7.98385967,9.05188865 C8.02690148,9.03318612 8.05967673,8.99681472 8.07373252,8.95217415 L10.8258819,0.20989105 C10.8451195,0.148841361 10.8263677,0.0822681291 10.7781764,0.0400824713 Z" id="Path"></path>
            </g>
        </g>
    </g>
</svg>