<?xml version="1.0" encoding="UTF-8"?>
<svg width="30px" height="30px" viewBox="0 0 30 30" version="1.1" xmlns="http://www.w3.org/2000/svg" xmlns:xlink="http://www.w3.org/1999/xlink">
    <title>99AB4E6A-4F16-4FF8-90B4-6CA68E5FFBD6</title>
    <defs>
        <polygon id="path-1" points="0 18 18 18 18 0 0 0"></polygon>
    </defs>
    <g id="New" stroke="none" stroke-width="1" fill="none" fill-rule="evenodd">
        <g id="iPhone-11-Pro-Copy-7" transform="translate(-250.000000, -358.000000)">
            <g id="Group-2" transform="translate(250.000000, 358.000000)">
                <circle id="Oval-Copy-2" stroke="#2561A8" fill="#FFFFFF" cx="15" cy="15" r="14.5"></circle>
                <g id="Group-13-Copy" transform="translate(6.000000, 6.000000)">
                    <path d="M9.32142857,4.5 C11.9842027,4.5 14.1428571,6.65865449 14.1428571,9.32142857 C14.1428571,11.9842027 11.9842027,14.1428571 9.32142857,14.1428571 C6.65865449,14.1428571 4.5,11.9842027 4.5,9.32142857 C4.5,6.65865449 6.65865449,4.5 9.32142857,4.5" id="Fill-1" fill="#2561A8"></path>
                    <path d="M7.07142857,16.0714286 C7.24017857,16.5074754 7.62589286,16.8291718 8.10803571,16.9210195 L8.10803571,17.1506387 C8.10803571,17.609877 8.51785714,18 9,18 C9.48214286,18 9.89196429,17.609877 9.89196429,17.1506387 L9.89196429,16.9210195 C10.3741071,16.8519041 10.7839286,16.5074754 10.9285714,16.0714286 L7.07142857,16.0714286 Z" id="Fill-3" fill="#2561A8"></path>
                    <mask id="mask-2" fill="white">
                        <use xlink:href="#path-1"></use>
                    </mask>
                    <g id="Clip-6"></g>
                    <polygon id="Fill-5" fill="#2561A8" mask="url(#mask-2)" points="7.07142857 15.4285714 10.9285714 15.4285714 10.9285714 14.7857143 7.07142857 14.7857143"></polygon>
                    <polygon id="Fill-7" fill="#2561A8" mask="url(#mask-2)" points="7.07142857 14.1428571 10.9285714 14.1428571 10.9285714 13.5 7.07142857 13.5"></polygon>
                    <path d="M0.466194111,8.35714286 C0.22082879,8.35714286 0,8.4924812 0,8.67857143 C0,8.86466165 0.196292257,9 0.466194111,9 L2.7480916,9 C2.99345692,9 3.21428571,8.86466165 3.21428571,8.67857143 C3.21428571,8.5093985 3.01799346,8.35714286 2.7480916,8.35714286 L0.466194111,8.35714286 Z" id="Fill-8" fill="#2561A8" mask="url(#mask-2)"></path>
                    <path d="M3.02926829,2.57142857 C2.90383275,2.57142857 2.80348432,2.62123833 2.70313589,2.72085783 C2.52752613,2.89519198 2.52752613,3.1940505 2.70313589,3.36838464 L4.35888502,5.01210654 C4.53449477,5.18644068 4.83554007,5.18644068 5.01114983,5.01210654 C5.18675958,4.8377724 5.18675958,4.53891387 5.01114983,4.36457973 L3.3554007,2.72085783 C3.28013937,2.62123833 3.15470383,2.57142857 3.02926829,2.57142857" id="Fill-9" fill="#2561A8" mask="url(#mask-2)"></path>
                    <path d="M9.32142857,0 C9.15225564,0 9,0.196292257 9,0.466194111 L9,2.7480916 C9,2.99345692 9.13533835,3.21428571 9.32142857,3.21428571 C9.4906015,3.21428571 9.64285714,3.01799346 9.64285714,2.7480916 L9.64285714,0.466194111 C9.62593985,0.196292257 9.4906015,0 9.32142857,0" id="Fill-10" fill="#2561A8" mask="url(#mask-2)"></path>
                    <path d="M14.9707652,2.57142857 C14.8453388,2.57142857 14.7449978,2.62123833 14.6444058,2.72085783 L12.9890287,4.36457973 C12.8131809,4.53891387 12.8131809,4.8377724 12.9890287,5.01210654 C13.1646256,5.18644068 13.4656489,5.18644068 13.6409949,5.01210654 L15.2968737,3.36838464 C15.4724707,3.1940505 15.4724707,2.89519198 15.2968737,2.72085783 C15.1962818,2.62123833 15.0961916,2.57142857 14.9707652,2.57142857" id="Fill-11" fill="#2561A8" mask="url(#mask-2)"></path>
                    <path d="M15.2552473,8.35714286 C15.0079945,8.35714286 14.7857143,8.4924812 14.7857143,8.67857143 C14.7857143,8.84774436 14.9832692,9 15.2552473,9 L17.5299725,9 C17.7772253,9 18,8.86466165 18,8.67857143 C18,8.4924812 17.8019505,8.35714286 17.5299725,8.35714286 L15.2552473,8.35714286 Z" id="Fill-12" fill="#2561A8" mask="url(#mask-2)"></path>
                </g>
            </g>
        </g>
    </g>
</svg>