<?xml version="1.0" encoding="UTF-8"?>
<svg width="18px" height="20px" viewBox="0 0 18 20" version="1.1" xmlns="http://www.w3.org/2000/svg" xmlns:xlink="http://www.w3.org/1999/xlink">
    <!-- Generator: Sketch 64 (93537) - https://sketch.com -->
    <title>phone</title>
    <desc>Created with Sketch.</desc>
    <g id="Page-1" stroke="none" stroke-width="1" fill="none" fill-rule="evenodd">
        <g id="Desktop-HD" transform="translate(-371.000000, -649.000000)" fill-rule="nonzero">
            <g id="phone" transform="translate(371.000000, 649.000000)">
                <path d="M11.25,0 L1.25,0 C0.56125,0 0,0.56125 0,1.25 L0,18.75 C0,19.44 0.56125,20 1.25,20 L11.25,20 C11.94,20 12.5,19.44 12.5,18.75 L12.5,1.25 C12.5,0.56125 11.94,0 11.25,0 Z" id="Path" fill="#455A64"></path>
                <rect id="Rectangle" fill="#ECEFF1" x="1.25" y="2.5" width="10" height="13.75"></rect>
                <path d="M16.25,5 L8.75,5 C8.06125,5 7.5,5.56125 7.5,6.25 L7.5,11.25 C7.5,11.95125 8.04875,12.5 8.75,12.5 L10,12.5 L10,13.75 C10,13.98625 10.13375,14.2025 10.345,14.30875 C10.43375,14.3525 10.53,14.375 10.625,14.375 C10.7575,14.375 10.89,14.3325 11,14.25 L13.33375,12.5 L16.25,12.5 C16.95125,12.5 17.5,11.95125 17.5,11.25 L17.5,6.25 C17.5,5.54875 16.95125,5 16.25,5 Z" id="Path" fill="#2196F3"></path>
                <g id="Group" transform="translate(10.000000, 8.125000)" fill="#FAFAFA">
                    <path d="M0.65,1.81818182 C0.305,1.81818182 0.01875,1.41090909 0.01875,0.909090909 C0.01875,0.407272727 0.29125,0 0.6375,0 L0.65,0 C0.995,0 1.275,0.407272727 1.275,0.909090909 C1.275,1.41090909 0.995,1.81818182 0.65,1.81818182 Z" id="Path"></path>
                    <path d="M4.4,1.81818182 C4.05625,1.81818182 3.76875,1.41090909 3.76875,0.909090909 C3.76875,0.407272727 4.0425,0 4.3875,0 L4.4,0 C4.745,0 5.025,0.407272727 5.025,0.909090909 C5.025,1.41090909 4.745,1.81818182 4.4,1.81818182 Z" id="Path"></path>
                </g>
            </g>
        </g>
    </g>
</svg>