<?xml version="1.0" encoding="UTF-8"?>
<svg width="24px" height="24px" viewBox="0 0 24 24" version="1.1" xmlns="http://www.w3.org/2000/svg" xmlns:xlink="http://www.w3.org/1999/xlink">
    <title>4DAE2EA0-AD8C-4433-9917-D3E21ED3D83E</title>
    <g id="New" stroke="none" stroke-width="1" fill="none" fill-rule="evenodd">
        <g id="iPhone-11-Pro-Copy-7" transform="translate(-98.000000, -52.000000)">
            <g id="Group" transform="translate(98.000000, 52.000000)">
                <polygon id="Path" points="0 0 24 0 24 24 0 24"></polygon>
                <path d="M21,3 C21.5522847,3 22,3.44771525 22,4 L22,9.5 C20.6192881,9.5 19.5,10.6192881 19.5,12 C19.5,13.3807119 20.6192881,14.5 22,14.5 L22,20 C22,20.5522847 21.5522847,21 21,21 L3,21 C2.44771525,21 2,20.5522847 2,20 L2,14.5 C3.38071187,14.5 4.5,13.3807119 4.5,12 C4.5,10.6192881 3.38071187,9.5 2,9.5 L2,4 C2,3.44771525 2.44771525,3 3,3 L21,3 Z M20,5 L4,5 L4,7.968 L4.156,8.049 C5.53551824,8.80157514 6.4225273,10.2192734 6.496,11.789 L6.5,12 C6.50025589,13.6463706 5.6012129,15.1613962 4.156,15.95 L4,16.032 L4,19 L20,19 L20,16.031 L19.844,15.951 C18.4644818,15.1984249 17.5774727,13.7807266 17.504,12.211 L17.5,12 C17.5,10.296 18.447,8.813 19.844,8.05 L20,7.967 L20,5 Z M16,9 L16,15 L8,15 L8,9 L16,9 Z" id="Shape" fill="#FFFFFF" fill-rule="nonzero"></path>
            </g>
        </g>
    </g>
</svg>