<?xml version="1.0" encoding="UTF-8"?>
<svg width="33px" height="36px" viewBox="0 0 33 36" version="1.1" xmlns="http://www.w3.org/2000/svg" xmlns:xlink="http://www.w3.org/1999/xlink">
    <!-- Generator: Sketch 63.1 (92452) - https://sketch.com -->
    <title>Group 13</title>
    <desc>Created with Sketch.</desc>
    <defs>
        <path d="M0,3 L0,27 C0,28.657 1.343,30 3,30 L3,30 C4.657,30 6.001,28.657 6.001,27 L6.001,27 L6.001,3 C6.001,1.344 4.657,0 3,0 L3,0 C1.343,0 0,1.344 0,3 L0,3 Z" id="path-1"></path>
        <path d="M0,3 L0,33 C0,34.656 1.343,36 3,36 L3,36 C4.657,36 6,34.656 6,33 L6,33 L6,3 C6,1.343 4.657,0 3,0 L3,0 C1.343,0 0,1.343 0,3 L0,3 Z" id="path-3"></path>
        <path d="M0.001,3 L0.001,27 C0.001,28.657 1.343,30 3,30 L3,30 C4.657,30 6,28.657 6,27 L6,27 L6,3 C6,1.344 4.657,0 3,0 L3,0 C1.343,0 0.001,1.344 0.001,3 L0.001,3 Z" id="path-5"></path>
        <path d="M2.324,0 C1.747,0 1.199,0.249 0.819,0.683 L0.819,0.683 C0.091,1.515 0.176,2.778 1.007,3.505 L1.007,3.505 L5.531,7.462 C5.607,7.529 5.689,7.59 5.775,7.645 L5.775,7.645 C6.708,8.237 7.944,7.961 8.536,7.029 L8.536,7.029 L13,0 L2.324,0 Z" id="path-7"></path>
    </defs>
    <g id="Page-1" stroke="none" stroke-width="1" fill="none" fill-rule="evenodd">
        <g id="Group-13">
            <g id="Group-3" transform="translate(27.000000, 3.000000)">
                <mask id="mask-2" fill="white">
                    <use xlink:href="#path-1"></use>
                </mask>
                <g id="Clip-2"></g>
                <polygon id="Fill-1" fill="#E74B5A" mask="url(#mask-2)" points="-5 35 11 35 11 -5 -5 -5"></polygon>
            </g>
            <g id="Group-6" transform="translate(17.000000, 0.000000)">
                <mask id="mask-4" fill="white">
                    <use xlink:href="#path-3"></use>
                </mask>
                <g id="Clip-5"></g>
                <polygon id="Fill-4" fill="#E74B5A" mask="url(#mask-4)" points="-5 41 11 41 11 -5 -5 -5"></polygon>
            </g>
            <g id="Group-9" transform="translate(7.000000, 3.000000)">
                <mask id="mask-6" fill="white">
                    <use xlink:href="#path-5"></use>
                </mask>
                <g id="Clip-8"></g>
                <polygon id="Fill-7" fill="#E74B5A" mask="url(#mask-6)" points="-5 35 11 35 11 -5 -5 -5"></polygon>
            </g>
            <g id="Group-12" transform="translate(0.000000, 10.000000)">
                <mask id="mask-8" fill="white">
                    <use xlink:href="#path-7"></use>
                </mask>
                <g id="Clip-11"></g>
                <polygon id="Fill-10" fill="#E74B5A" mask="url(#mask-8)" points="-4.676 12.956 18 12.956 18 -5.001 -4.676 -5.001"></polygon>
            </g>
        </g>
    </g>
</svg>